<svg width="65" height="65" viewBox="0 0 65 65" fill="none" xmlns="http://www.w3.org/2000/svg">
<path d="M38.6831 9.48181L17.6313 31.0781C17.2615 31.4574 17.0546 31.9662 17.0546 32.4959C17.0546 33.0256 17.2615 33.5344 17.6313 33.9137L38.6831 55.5181C38.8554 55.695 39.0613 55.8356 39.2887 55.9316C39.5162 56.0276 39.7606 56.077 40.0075 56.077C40.2544 56.077 40.4988 56.0276 40.7263 55.9316C40.9537 55.8356 41.1596 55.695 41.3319 55.5181C41.6862 55.1553 41.8846 54.6683 41.8846 54.1612C41.8846 53.6541 41.6862 53.1671 41.3319 52.8043L21.5353 32.4959L41.3319 12.1915C41.685 11.8289 41.8826 11.3428 41.8826 10.8367C41.8826 10.3305 41.685 9.8444 41.3319 9.48181C41.1596 9.30492 40.9537 9.16432 40.7263 9.06832C40.4988 8.97231 40.2544 8.92285 40.0075 8.92285C39.7606 8.92285 39.5162 8.97231 39.2887 9.06832C39.0613 9.16432 38.8554 9.30492 38.6831 9.48181Z" fill="#F60000"/>
</svg>
