<svg width="69" height="69" viewBox="0 0 69 69" fill="none" xmlns="http://www.w3.org/2000/svg">
<path d="M15.0573 60.2291C14.4868 60.2291 13.9397 60.0025 13.5363 59.5991C13.1329 59.1957 12.9062 58.6486 12.9062 58.0781V10.7552C12.9063 10.3814 13.0038 10.0141 13.189 9.68941C13.3743 9.36476 13.641 9.094 13.9627 8.9038C14.2845 8.71359 14.6503 8.61053 15.0241 8.60475C15.3978 8.59897 15.7666 8.69069 16.0941 8.87085L59.1149 32.5323C59.4522 32.718 59.7334 32.9908 59.9293 33.3222C60.1252 33.6537 60.2285 34.0316 60.2285 34.4166C60.2285 34.8016 60.1252 35.1796 59.9293 35.511C59.7334 35.8425 59.4522 36.1152 59.1149 36.3009L16.0941 59.9624C15.7765 60.1373 15.4198 60.229 15.0573 60.2291Z" fill="white"/>
</svg>
