<svg width="20" height="20" viewBox="0 0 20 20" fill="none" xmlns="http://www.w3.org/2000/svg">
<g clip-path="url(#clip0_220_605)">
<path d="M10 0C5.8363 0 2.46093 3.20851 2.46093 7.16642C2.46093 8.49004 2.73348 9.85712 3.51561 10.8425L10 19.0114L16.4844 10.8425C17.1948 9.94749 17.539 8.36533 17.539 7.16642C17.5391 3.20851 14.1637 0 10 0ZM10 4.15062C11.7519 4.15062 13.1726 5.50108 13.1726 7.1664C13.1726 8.83176 11.7519 10.1822 10 10.1822C8.24806 10.1822 6.8274 8.83176 6.8274 7.16642C6.8274 5.50108 8.24806 4.15062 10 4.15062Z" fill="black"/>
</g>
<defs>
<clipPath id="clip0_220_605">
<rect width="20" height="19.0114" fill="white"/>
</clipPath>
</defs>
</svg>
