<svg width="36" height="36" viewBox="0 0 36 36" fill="none" xmlns="http://www.w3.org/2000/svg">
<path fill-rule="evenodd" clip-rule="evenodd" d="M3.60002 7.20001C3.28176 7.20001 2.97654 7.32644 2.7515 7.55148C2.52645 7.77653 2.40002 8.08175 2.40002 8.40001C2.40002 8.71827 2.52645 9.0235 2.7515 9.24854C2.97654 9.47358 3.28176 9.60001 3.60002 9.60001H32.4C32.7183 9.60001 33.0235 9.47358 33.2486 9.24854C33.4736 9.0235 33.6 8.71827 33.6 8.40001C33.6 8.08175 33.4736 7.77653 33.2486 7.55148C33.0235 7.32644 32.7183 7.20001 32.4 7.20001H3.60002ZM2.40002 18C2.40002 17.6818 2.52645 17.3765 2.7515 17.1515C2.97654 16.9264 3.28176 16.8 3.60002 16.8H32.4C32.7183 16.8 33.0235 16.9264 33.2486 17.1515C33.4736 17.3765 33.6 17.6818 33.6 18C33.6 18.3183 33.4736 18.6235 33.2486 18.8485C33.0235 19.0736 32.7183 19.2 32.4 19.2H3.60002C3.28176 19.2 2.97654 19.0736 2.7515 18.8485C2.52645 18.6235 2.40002 18.3183 2.40002 18ZM2.40002 27.6C2.40002 27.2818 2.52645 26.9765 2.7515 26.7515C2.97654 26.5264 3.28176 26.4 3.60002 26.4H32.4C32.7183 26.4 33.0235 26.5264 33.2486 26.7515C33.4736 26.9765 33.6 27.2818 33.6 27.6C33.6 27.9183 33.4736 28.2235 33.2486 28.4485C33.0235 28.6736 32.7183 28.8 32.4 28.8H3.60002C3.28176 28.8 2.97654 28.6736 2.7515 28.4485C2.52645 28.2235 2.40002 27.9183 2.40002 27.6Z" fill="black"/>
</svg>
