<?xml version="1.0" standalone="no"?>
<!DOCTYPE svg PUBLIC "-//W3C//DTD SVG 20010904//EN"
 "http://www.w3.org/TR/2001/REC-SVG-20010904/DTD/svg10.dtd">
<svg version="1.0" xmlns="http://www.w3.org/2000/svg"
 width="1360.000000pt" height="1360.000000pt" viewBox="0 0 1360.000000 1360.000000"
 preserveAspectRatio="xMidYMid meet">
<metadata>
Created by potrace 1.14, written by Peter Selinger 2001-2017
</metadata>
<g transform="translate(0.000000,1360.000000) scale(0.100000,-0.100000)"
fill="#000000" stroke="none">
<path d="M6762 11521 c-57 -103 -150 -196 -268 -268 -52 -31 -94 -61 -94 -65
0 -4 68 -53 150 -108 83 -55 150 -104 150 -108 0 -9 -138 -109 -201 -145 -25
-15 -54 -27 -65 -27 -10 0 -55 16 -99 36 -176 79 -274 93 -379 53 -154 -57
-154 -224 -1 -295 39 -19 67 -24 130 -24 107 0 179 19 301 81 l101 51 94 -45
c52 -25 104 -56 117 -69 l22 -25 -119 -57 c-129 -62 -125 -60 -451 -107 -229
-32 -269 -32 -369 2 -71 25 -135 66 -193 126 -67 69 -92 124 -96 208 -5 96 22
167 93 244 164 176 418 194 724 50 50 -23 98 -39 120 -39 l36 1 -30 24 c-99
81 -312 154 -476 162 -239 13 -416 -74 -505 -248 -36 -71 -45 -200 -19 -278
36 -108 139 -214 278 -283 l67 -34 -90 -23 c-50 -13 -92 -22 -93 -20 -2 2 -16
35 -32 73 -77 186 -237 335 -434 407 -56 20 -68 21 -108 11 -67 -18 -183 -79
-258 -135 -159 -119 -265 -328 -265 -524 0 -40 -4 -73 -8 -73 -5 0 -34 5 -65
11 -54 11 -59 14 -87 64 -158 277 -500 375 -834 239 -99 -40 -253 -150 -362
-258 -130 -129 -225 -259 -354 -482 -279 -481 -562 -868 -723 -990 l-61 -45
-18 33 c-9 18 -30 69 -45 113 -26 75 -27 91 -28 260 0 161 2 188 23 255 45
144 145 299 248 386 157 131 277 187 536 250 65 15 114 32 109 37 -12 12 -171
-10 -280 -39 -242 -63 -434 -197 -554 -385 -79 -123 -147 -347 -147 -482 0
-87 28 -222 66 -321 48 -125 48 -125 31 -132 -10 -3 -32 13 -62 45 -63 67
-153 111 -238 118 l-64 6 -23 55 c-43 103 -171 201 -300 231 -67 16 -218 13
-285 -4 -132 -34 -277 -123 -361 -219 -45 -52 -48 -54 -119 -65 -141 -21 -261
-77 -354 -167 -61 -59 -62 -81 -3 -41 100 66 236 119 358 141 l31 5 -15 -53
-15 -53 -56 -6 c-168 -18 -362 -132 -422 -248 -37 -74 -18 -224 35 -268 27
-22 27 -9 1 55 -30 73 -31 115 -4 171 53 109 263 222 417 223 29 0 32 -3 32
-29 0 -41 33 -142 63 -193 40 -68 128 -145 214 -186 75 -35 82 -37 183 -37 88
0 113 4 157 24 48 21 98 61 77 61 -5 0 -34 -10 -64 -21 -84 -32 -201 -37 -288
-10 -170 51 -278 175 -306 349 -6 39 -4 43 11 39 10 -3 36 -8 58 -12 107 -17
214 -63 405 -175 281 -165 446 -220 662 -220 l57 0 -46 -67 c-26 -38 -48 -69
-49 -71 -1 -2 -28 4 -60 13 -93 25 -254 30 -353 11 -82 -15 -202 -64 -261
-106 -38 -27 -41 -26 -24 18 18 44 7 84 -27 102 -20 11 -21 10 -14 -22 14 -66
9 -80 -70 -198 -45 -67 -82 -135 -93 -170 -16 -53 -19 -57 -30 -40 -14 22 -52
26 -70 8 -32 -32 10 -84 54 -68 23 9 24 8 24 -42 l0 -52 -33 32 c-43 42 -96
57 -142 42 -61 -20 -84 -80 -46 -114 24 -22 59 -17 78 10 12 18 11 24 -8 47
l-20 27 33 0 c50 0 92 -31 118 -87 59 -128 78 -159 128 -209 49 -49 52 -54 30
-54 -42 0 -119 -28 -144 -51 -32 -30 -40 -78 -20 -118 27 -52 97 -54 104 -2 5
33 -17 54 -51 47 -25 -5 -28 -3 -25 16 9 61 110 81 271 54 79 -14 108 -15 159
-6 163 30 258 139 258 294 0 185 -177 303 -342 229 -85 -39 -130 -151 -99
-246 25 -75 127 -130 201 -108 74 22 114 109 73 159 -27 34 -94 41 -122 13
-26 -26 -28 -77 -4 -104 18 -19 17 -19 -17 -12 -133 28 -113 234 26 263 127
27 234 -65 234 -202 0 -66 -22 -116 -72 -162 -61 -58 -93 -69 -204 -69 -94 0
-104 2 -149 30 -55 34 -103 99 -136 183 -18 45 -23 77 -24 152 0 90 2 99 35
160 44 83 156 195 235 237 34 18 96 42 140 54 68 18 96 21 209 16 72 -3 152
-11 178 -17 l47 -11 -21 -43 -20 -42 -62 13 c-185 39 -401 -7 -523 -112 -88
-75 -145 -252 -113 -351 12 -38 49 -98 55 -92 2 2 -6 30 -17 63 -63 188 74
385 297 426 73 14 212 6 281 -15 l50 -16 -18 -87 c-19 -93 -22 -183 -19 -544
2 -171 0 -213 -14 -245 -22 -53 -50 -80 -102 -100 -36 -14 -50 -15 -83 -5 -76
23 -111 101 -76 169 30 58 108 67 127 15 10 -27 -15 -57 -40 -48 -9 4 -22 9
-28 12 -22 9 -14 -32 10 -55 37 -35 79 -25 105 25 20 36 14 63 -22 99 -59 59
-142 39 -178 -42 -26 -61 -17 -117 26 -160 99 -99 263 -34 293 117 l6 32 19
-52 c11 -29 42 -85 68 -124 45 -66 47 -73 33 -90 -14 -14 -14 -23 -4 -58 11
-36 10 -43 -5 -61 -16 -16 -16 -21 -4 -28 22 -14 29 -12 56 15 25 25 25 25 84
10 73 -19 72 -19 66 5 -3 11 -9 30 -12 42 -5 17 4 13 45 -23 28 -25 94 -71
145 -103 108 -67 105 -53 40 -177 -37 -69 -104 -146 -155 -176 -18 -11 -29
-26 -29 -39 0 -53 51 -32 133 55 57 59 100 137 127 228 l13 42 37 -19 37 -19
-13 -88 c-23 -141 -65 -343 -86 -413 -17 -55 -30 -74 -93 -137 -40 -40 -89
-80 -109 -88 -42 -18 -115 -20 -151 -3 l-25 11 30 18 c50 31 36 89 -20 89 -47
0 -74 -53 -54 -105 12 -30 84 -58 149 -58 l61 0 -28 -55 c-47 -93 -34 -202 27
-230 33 -15 78 -15 93 0 18 18 14 63 -8 83 -25 22 -66 13 -76 -17 -6 -21 -7
-21 -21 -2 -20 26 -12 88 21 159 19 42 50 81 111 140 l85 83 0 -113 c0 -197
36 -316 141 -470 22 -33 67 -101 99 -152 52 -82 58 -95 53 -131 -7 -52 23 -86
69 -80 27 4 41 -5 119 -81 77 -73 89 -90 89 -118 0 -35 29 -73 55 -73 8 0 24
5 37 10 20 9 38 2 133 -55 61 -36 117 -76 125 -89 18 -31 54 -48 84 -40 14 3
60 -8 115 -28 72 -26 93 -38 97 -56 12 -45 78 -68 105 -36 13 16 30 15 109 -6
32 -9 43 -21 90 -101 42 -70 54 -99 51 -124 -3 -39 26 -75 61 -75 35 0 168
-137 168 -172 0 -16 10 -38 21 -49 17 -17 29 -20 62 -16 34 5 55 -1 114 -29
40 -19 76 -34 81 -34 4 0 13 -13 19 -30 16 -42 56 -56 97 -33 27 16 42 17 111
9 l80 -9 37 -52 c26 -36 36 -62 36 -85 -1 -39 30 -70 69 -70 29 0 173 -125
173 -151 0 -30 39 -59 79 -59 22 0 58 -10 82 -24 24 -13 76 -36 115 -51 48
-18 76 -35 85 -51 16 -31 53 -40 87 -24 19 10 68 13 167 11 122 -2 143 -5 161
-22 11 -10 32 -19 46 -19 25 0 58 27 58 48 0 6 38 22 85 37 46 14 105 34 131
45 40 18 51 19 80 8 30 -11 37 -10 61 8 16 12 29 33 31 48 3 19 19 37 63 67
33 22 76 54 95 71 29 26 44 31 75 30 52 -4 83 26 77 74 -3 30 4 44 58 108 34
41 70 88 80 105 10 17 27 31 37 31 10 0 29 11 43 25 21 21 24 31 19 57 -10 44
67 204 102 213 13 3 28 14 34 23 11 17 13 17 35 -5 13 -13 29 -23 37 -23 23 0
93 -167 89 -211 -3 -30 1 -40 24 -58 15 -11 32 -21 39 -21 8 0 30 -24 51 -53
21 -28 58 -76 83 -106 37 -43 45 -59 42 -86 -4 -47 29 -79 74 -72 27 4 40 -1
81 -35 27 -23 73 -57 102 -76 38 -26 52 -41 52 -58 0 -47 55 -78 99 -55 12 7
54 -3 146 -35 104 -35 134 -49 153 -74 28 -36 70 -40 98 -9 16 18 26 20 69 15
28 -3 90 -1 139 4 73 7 93 6 110 -5 32 -23 62 -18 88 14 15 19 51 40 101 61
43 17 96 39 117 50 22 11 54 20 73 20 34 0 71 29 79 61 6 28 144 149 169 149
42 0 69 27 69 68 0 27 10 50 39 87 l38 50 79 10 c71 9 83 8 112 -9 40 -22 75
-11 94 29 8 18 37 37 94 64 68 32 89 38 127 34 38 -5 46 -2 61 18 9 13 16 35
16 49 0 33 135 170 168 170 35 0 64 36 61 75 -3 25 9 54 51 124 47 80 58 92
90 101 79 21 96 22 109 6 27 -32 81 -14 106 34 9 17 20 30 26 30 6 0 45 14 87
30 53 22 84 29 104 25 34 -8 73 14 83 45 4 11 30 32 58 47 29 14 78 44 110 65
53 36 61 39 87 28 16 -7 38 -9 50 -5 29 9 53 50 46 78 -5 20 9 37 88 110 73
67 98 85 115 80 47 -12 95 51 72 95 -8 15 -5 26 15 53 14 19 50 75 80 124 30
50 74 118 98 151 75 106 113 268 104 443 l-4 86 90 -90 c116 -117 164 -217
136 -289 l-10 -28 -21 26 c-23 30 -50 33 -73 10 -19 -18 -21 -65 -4 -82 22
-22 75 -14 110 17 31 28 33 33 33 98 -1 54 -7 79 -28 121 l-27 52 38 -6 c80
-13 182 42 182 98 0 61 -72 93 -104 46 -18 -26 -7 -54 30 -70 24 -11 25 -13 8
-25 -10 -7 -45 -13 -79 -13 -50 0 -69 5 -106 28 -71 46 -138 118 -166 179 -25
54 -83 315 -101 457 l-9 68 33 14 c44 18 41 20 55 -23 37 -116 121 -234 202
-288 33 -21 57 -14 57 17 -1 16 -14 32 -46 52 -57 36 -119 112 -156 193 -15
35 -28 67 -28 72 0 5 26 24 58 41 78 44 177 115 236 170 34 32 47 39 43 25 -3
-11 -8 -37 -12 -58 -7 -42 -12 -41 84 -16 30 7 37 5 57 -16 24 -26 40 -30 62
-16 10 6 10 11 -3 21 -14 11 -16 24 -10 68 4 34 3 58 -5 67 -9 10 -2 27 29 73
23 32 53 86 68 118 l27 59 8 -40 c17 -83 95 -145 183 -145 94 0 152 65 143
160 -5 46 -11 59 -42 87 -40 37 -79 43 -126 18 -35 -18 -50 -43 -50 -85 0 -35
38 -80 67 -80 30 0 63 29 63 56 0 27 -3 28 -31 13 -41 -22 -67 32 -31 64 28
25 65 21 95 -11 58 -61 39 -149 -40 -184 -58 -26 -113 -11 -165 43 -41 43 -44
56 -52 204 -4 55 -11 117 -16 137 -6 20 -12 131 -14 245 -2 169 -6 221 -23
280 l-19 72 30 12 c17 6 84 14 148 16 99 5 127 2 185 -15 140 -43 233 -143
256 -275 11 -64 5 -101 -28 -192 -5 -16 -1 -14 19 8 35 38 49 99 43 180 -15
176 -140 305 -343 353 -52 12 -99 15 -189 11 -66 -2 -127 -8 -136 -11 -11 -5
-20 4 -32 29 -9 20 -17 40 -17 44 0 16 134 36 235 35 246 -2 454 -123 552
-324 81 -162 1 -419 -153 -496 -30 -14 -60 -19 -129 -19 -78 0 -97 4 -141 27
-120 63 -165 187 -110 304 25 53 58 83 115 102 48 17 79 15 128 -8 57 -25 83
-69 83 -140 -1 -73 -20 -96 -95 -114 -29 -7 -29 -7 -11 13 40 44 11 121 -45
121 -92 0 -127 -91 -62 -162 44 -49 145 -42 208 13 43 38 58 85 53 159 -7 94
-60 151 -159 172 -102 21 -201 -25 -257 -121 -24 -40 -27 -56 -27 -131 0 -68
5 -93 22 -126 69 -129 215 -189 386 -159 151 27 244 14 276 -36 16 -26 7 -37
-24 -31 -31 5 -55 -13 -55 -42 0 -30 18 -46 51 -46 36 0 69 42 69 87 0 63 -84
123 -172 123 -27 0 -27 0 17 41 54 49 97 115 125 191 28 76 75 118 133 118
l42 0 -23 -18 c-44 -34 -13 -92 41 -78 57 14 44 96 -19 122 -46 19 -88 11
-135 -26 l-37 -29 -6 31 c-3 17 -6 45 -6 62 -1 60 -45 160 -113 258 -73 104
-85 139 -68 189 14 42 7 48 -24 19 -27 -25 -34 -75 -15 -110 7 -13 -15 -5 -83
30 -113 60 -183 79 -312 86 -90 5 -215 -8 -275 -29 -10 -4 -29 15 -58 59 -28
43 -38 66 -30 68 7 3 60 7 118 10 181 10 329 63 567 202 182 107 271 149 370
175 107 27 123 26 123 -9 0 -49 -30 -135 -66 -188 -43 -64 -96 -106 -182 -147
-58 -27 -80 -32 -167 -35 -98 -4 -137 4 -229 43 -14 6 -18 5 -14 -6 2 -8 31
-27 63 -44 55 -28 65 -30 174 -30 113 0 118 1 191 37 139 68 234 191 261 341
l13 69 45 -6 c150 -21 249 -65 338 -151 73 -72 92 -120 73 -193 -6 -25 -18
-58 -26 -74 -18 -35 -12 -47 12 -27 49 41 71 180 39 255 -8 19 -40 61 -72 93
-76 76 -194 134 -322 159 l-94 19 -12 46 -12 47 27 0 c38 0 192 -45 243 -72
23 -11 68 -38 101 -60 32 -21 61 -37 63 -34 3 3 -5 18 -18 34 -86 104 -281
201 -404 202 -48 0 -50 2 -100 63 -63 79 -195 163 -325 209 -69 24 -216 34
-295 19 -139 -26 -289 -137 -330 -245 -16 -41 -21 -46 -49 -46 -93 0 -213 -56
-280 -131 -34 -36 -55 -47 -68 -33 -4 3 8 35 24 72 150 331 86 726 -160 985
-161 169 -434 286 -699 299 -77 4 -56 -10 59 -37 306 -73 458 -151 611 -315
110 -118 172 -234 204 -383 20 -96 20 -291 0 -385 -17 -76 -75 -215 -88 -210
-4 2 -34 24 -67 50 -153 119 -435 507 -701 963 -147 252 -231 367 -365 500
-218 216 -430 317 -665 316 -222 -1 -418 -110 -521 -289 -34 -60 -36 -61 -95
-74 l-60 -13 -12 98 c-14 117 -34 191 -73 267 -70 138 -178 243 -328 317 -124
62 -181 67 -273 25 -189 -85 -330 -228 -399 -402 -12 -30 -23 -57 -25 -59 -5
-5 -155 32 -155 38 0 3 30 19 65 35 80 36 149 101 195 187 33 61 35 69 35 164
0 94 -2 105 -34 169 -62 126 -193 228 -329 257 -78 16 -257 6 -350 -21 -108
-30 -282 -123 -282 -150 0 -20 52 -9 118 24 319 159 656 113 778 -106 73 -133
9 -323 -142 -423 -120 -80 -223 -99 -396 -74 -68 10 -188 25 -268 34 -80 9
-165 23 -190 32 -48 17 -150 74 -150 84 0 3 50 36 112 72 134 81 151 83 257
28 150 -77 279 -93 378 -46 120 55 126 196 11 257 -38 20 -57 23 -153 22 -104
0 -118 -3 -249 -47 -159 -53 -132 -58 -283 46 l-102 70 37 26 c20 15 89 59
152 98 169 106 160 94 108 128 -123 81 -246 215 -304 331 -20 41 -39 74 -43
74 -3 0 -25 -36 -49 -79z m109 -128 c24 -38 75 -99 114 -137 67 -66 69 -69 50
-83 -33 -23 -247 -155 -262 -160 -10 -4 -243 140 -243 151 0 1 21 18 48 36 77
56 148 128 193 196 23 35 45 64 49 64 4 0 27 -30 51 -67z m-6 -520 c38 -19
175 -116 175 -124 0 -3 -21 -17 -47 -32 -27 -14 -79 -46 -118 -71 -74 -50
-107 -56 -145 -29 -14 10 -60 39 -103 64 l-78 47 103 74 c150 109 142 106 213
71z m-672 -38 c31 -8 87 -30 124 -49 l67 -33 -41 -26 c-42 -27 -145 -73 -198
-89 -16 -5 -55 -9 -86 -9 -93 -1 -149 41 -149 111 0 39 33 80 80 99 38 15 139
13 203 -4z m1420 -24 c34 -22 52 -47 61 -84 5 -21 1 -33 -17 -51 -66 -66 -249
-61 -389 10 -27 14 -48 29 -48 34 0 13 88 57 170 86 83 30 182 32 223 5z
m-2462 -134 c175 -73 375 -259 404 -378 6 -24 3 -26 -83 -52 -48 -14 -96 -29
-104 -32 -12 -5 -22 3 -34 26 -27 54 -113 137 -189 184 -40 25 -77 45 -84 45
-30 0 -140 -69 -193 -122 -102 -99 -149 -242 -115 -351 l15 -47 -28 -15 c-28
-14 -31 -13 -87 24 -32 21 -69 44 -83 51 -36 19 -40 28 -40 95 0 132 67 292
165 390 98 100 286 205 365 205 19 0 60 -11 91 -23z m3533 -31 c130 -65 216
-133 269 -214 78 -119 119 -254 109 -361 -4 -36 -10 -46 -34 -60 -17 -9 -57
-33 -89 -53 -53 -33 -62 -36 -85 -26 -23 11 -25 16 -17 42 4 17 8 67 8 111 0
71 -4 88 -33 147 -39 80 -121 160 -214 208 l-64 33 -64 -34 c-78 -41 -157
-113 -200 -180 -20 -31 -38 -48 -46 -45 -8 3 -53 17 -101 32 -49 14 -90 28
-92 30 -2 2 11 34 29 71 61 125 249 283 400 337 66 24 120 15 224 -38z m-1794
-172 c45 -25 45 -25 11 -19 -18 3 -66 5 -105 6 l-71 1 40 19 c52 24 71 23 125
-7z m-1761 -121 c36 -20 93 -64 126 -96 54 -54 58 -61 40 -68 -108 -45 -376
-164 -433 -193 l-71 -36 -11 38 c-25 93 6 180 97 270 46 45 158 120 182 122 2
0 34 -17 70 -37z m3490 -6 c66 -39 150 -129 179 -191 24 -51 29 -130 11 -170
l-12 -25 -96 48 c-81 41 -334 153 -393 174 -10 4 -18 11 -18 18 0 20 105 113
170 151 72 42 78 42 159 -5z m-4653 -12 c139 -44 296 -155 343 -243 11 -21 10
-22 -27 -22 -56 0 -186 -35 -242 -66 l-48 -26 -61 22 c-95 35 -186 26 -299
-30 -72 -36 -103 -60 -182 -139 -55 -55 -126 -141 -167 -201 l-71 -106 -94
-37 c-100 -40 -207 -104 -303 -182 -33 -27 -55 -42 -49 -34 6 8 69 120 139
249 306 562 432 716 655 801 141 54 268 58 406 14z m5957 19 c180 -40 321
-137 450 -312 92 -124 291 -463 455 -777 3 -5 -10 4 -29 21 -91 83 -199 150
-331 204 l-89 37 -66 98 c-76 114 -211 259 -291 311 -120 80 -257 104 -365 64
l-54 -20 -74 35 c-51 24 -101 39 -159 47 -47 6 -87 13 -89 14 -8 6 42 74 82
111 111 102 298 180 440 182 26 1 80 -6 120 -15z m-2948 -184 c413 -31 749
-92 1085 -198 183 -58 325 -118 585 -249 286 -143 458 -257 578 -382 48 -50
95 -91 103 -91 9 0 50 9 92 20 142 36 272 51 428 51 364 0 630 -97 810 -295
71 -77 113 -145 163 -263 50 -116 68 -185 96 -365 13 -82 25 -151 27 -154 2
-2 63 -17 135 -33 207 -47 360 -122 485 -239 104 -97 190 -249 223 -392 25
-110 23 -329 -4 -435 -81 -313 -305 -512 -680 -603 -82 -21 -152 -40 -156 -43
-3 -4 -17 -76 -30 -161 -30 -190 -61 -291 -133 -433 -49 -96 -68 -122 -151
-205 -81 -81 -112 -104 -196 -147 -55 -28 -131 -61 -170 -72 -226 -68 -567
-67 -864 0 -69 16 -95 18 -101 10 -24 -40 -170 -174 -250 -231 -260 -185 -770
-425 -1113 -524 -116 -34 -506 -112 -649 -130 -474 -61 -876 -39 -1418 79
-281 62 -493 135 -777 268 -360 170 -602 323 -732 465 l-77 83 -94 -21 c-225
-51 -499 -64 -695 -35 -330 49 -560 208 -693 477 -64 131 -86 203 -123 412
-16 94 -31 171 -32 172 -1 1 -55 13 -119 27 -326 72 -541 226 -662 472 -51
104 -67 174 -73 325 -8 207 22 341 108 487 80 134 251 275 406 335 42 17 135
43 206 58 71 16 130 30 132 32 2 2 17 80 34 174 37 205 59 280 117 399 166
340 476 507 944 507 170 0 273 -13 429 -53 l115 -30 25 33 c129 173 422 362
886 570 370 166 714 253 1210 308 283 31 371 34 570 20z m-2624 -172 c17 -65
29 -168 23 -213 -10 -74 -14 -82 -56 -110 -23 -15 -63 -48 -89 -72 l-48 -45
-98 16 c-54 8 -128 18 -165 22 -62 6 -68 8 -68 29 0 68 73 218 130 270 20 18
21 18 60 -20 45 -44 54 -30 15 27 -23 33 -23 37 -7 51 48 42 173 85 249 86 41
1 42 0 54 -41z m149 5 c10 -10 61 -134 63 -152 1 -8 -29 -33 -68 -57 l-70 -43
-6 107 c-4 59 -12 120 -18 135 -6 16 -11 32 -11 37 0 9 99 -15 110 -27z m4693
-5 c-11 -29 -16 -79 -17 -150 -1 -94 -3 -105 -16 -94 -8 7 -43 29 -77 50 l-61
36 33 81 c18 44 34 82 37 84 2 2 29 11 59 19 29 8 55 15 56 15 1 1 -5 -18 -14
-41z m194 28 c55 -15 125 -46 156 -70 18 -14 18 -16 -8 -60 -31 -53 -18 -60
28 -15 l31 32 39 -44 c56 -63 95 -146 111 -235 l5 -32 -72 -6 c-40 -4 -113
-14 -164 -22 l-92 -15 -94 76 c-52 41 -97 85 -101 98 -16 59 4 256 30 298 8
13 72 11 131 -5z m-4779 -70 c76 -38 81 -51 33 -75 -22 -12 -42 -21 -45 -21
-4 0 -46 105 -46 115 0 9 10 5 58 -19z m4432 13 c0 -13 -41 -109 -47 -109 -16
0 -82 43 -78 51 7 10 106 69 118 69 4 0 7 -5 7 -11z m-5109 -16 c6 -6 -2 -22
-26 -49 -48 -52 -103 -165 -117 -241 l-12 -63 -115 0 c-81 0 -150 -7 -228 -23
-62 -13 -113 -20 -113 -16 0 18 110 171 163 227 66 68 171 143 234 167 43 17
197 15 214 -2z m5931 7 c57 -16 177 -101 249 -176 62 -65 97 -112 147 -195
l22 -36 -113 23 c-80 17 -147 23 -234 24 l-123 0 0 29 c0 77 -77 241 -139 296
l-23 20 29 12 c35 15 135 16 185 3z m-8598 -1030 c138 -35 227 -95 261 -177
l13 -31 -63 -31 c-34 -17 -79 -49 -99 -71 -30 -33 -36 -48 -36 -84 0 -63 29
-96 84 -96 84 0 152 77 163 185 l6 55 56 0 c138 0 271 -133 271 -270 0 -100
-77 -208 -181 -255 -56 -25 -70 -27 -150 -23 -83 4 -93 7 -205 64 -64 32 -178
99 -253 147 -234 151 -395 217 -533 217 l-60 0 7 33 c13 58 22 67 69 67 63 0
223 -43 296 -80 35 -18 122 -69 194 -115 157 -99 230 -136 330 -170 127 -43
229 -27 288 43 25 30 55 99 46 107 -2 2 -19 -17 -38 -43 -43 -58 -89 -82 -157
-82 -102 0 -185 42 -368 184 -172 135 -341 208 -512 223 -40 3 -73 9 -73 14 0
14 84 80 145 114 157 87 343 115 499 75z m11406 -10 c41 -12 105 -38 142 -57
67 -35 158 -106 158 -124 0 -5 -18 -9 -39 -9 -46 0 -156 -22 -227 -45 -96 -32
-194 -89 -329 -191 -175 -130 -242 -165 -333 -172 -88 -6 -141 19 -180 83 -32
53 -43 57 -33 12 15 -64 50 -105 113 -132 108 -45 291 14 530 171 203 132 338
188 483 201 l72 6 11 -46 c7 -25 12 -48 12 -51 0 -3 -23 -6 -51 -6 -69 0 -179
-26 -269 -65 -84 -36 -130 -63 -275 -157 -55 -36 -159 -96 -231 -133 -123 -64
-136 -68 -210 -73 -94 -5 -146 7 -211 51 -87 58 -142 173 -127 268 17 103 124
209 233 229 77 14 87 9 95 -53 15 -112 79 -187 161 -187 22 0 45 4 51 8 20 13
34 50 34 92 0 33 -7 48 -40 84 -24 25 -63 54 -95 67 -30 13 -55 30 -55 37 0 7
9 30 19 51 33 64 120 118 244 152 92 25 238 20 347 -11z m-10196 -129 c-19
-51 -45 -143 -57 -206 l-22 -112 -100 -32 c-55 -18 -105 -34 -111 -37 -6 -2
-35 18 -64 45 l-53 50 89 59 c97 65 233 188 304 275 25 30 46 54 47 53 1 -1
-13 -44 -33 -95z m8784 -88 c67 -64 223 -184 255 -196 13 -5 -29 -55 -74 -87
-27 -20 -10 -24 -232 53 -4 1 -17 46 -28 100 -10 53 -37 147 -59 208 l-39 112
51 -59 c28 -33 85 -91 126 -131z m-9711 -72 c-10 -78 -53 -136 -114 -155 -26
-8 -63 23 -63 54 0 30 60 91 115 116 27 13 54 24 59 24 5 0 6 -17 3 -39z
m10600 -7 c73 -42 93 -94 52 -135 -45 -45 -137 34 -152 133 -3 20 -3 39 0 41
7 8 49 -9 100 -39z m-10037 -254 c0 -3 -26 -18 -57 -35 -31 -16 -84 -49 -116
-73 -56 -42 -59 -42 -38 -13 27 37 61 134 61 172 0 21 8 32 28 43 27 15 28 15
74 -37 26 -29 47 -54 48 -57z m9495 98 c16 -7 25 -19 25 -34 0 -38 38 -147 65
-187 l26 -38 -61 45 c-33 25 -87 60 -118 77 -31 18 -59 34 -61 35 -3 3 89 114
95 114 2 0 15 -5 29 -12z m461 -1520 c-19 -75 -75 -190 -113 -235 -26 -29 -29
-30 -44 -15 -16 16 -14 22 30 93 25 41 58 91 73 110 31 40 57 101 59 138 l2
26 4 -27 c2 -15 -3 -56 -11 -90z m-10417 -143 c23 -38 47 -78 54 -87 6 -9 8
-20 4 -24 -27 -27 -130 161 -151 276 -5 26 1 17 22 -30 15 -36 47 -96 71 -135z
m685 -508 l59 -22 21 -107 c12 -59 18 -115 14 -125 -11 -29 -8 -155 5 -193 11
-33 15 -35 60 -38 33 -2 47 -7 47 -18 0 -7 -4 -14 -9 -14 -5 0 -32 -21 -60
-46 -92 -83 -128 -188 -97 -281 29 -87 107 -143 201 -143 49 0 60 4 86 29 16
16 29 34 29 40 0 16 -7 14 -34 -14 -29 -29 -72 -33 -115 -10 -34 17 -41 33
-41 89 0 35 -5 46 -30 64 -26 19 -30 29 -30 68 0 24 6 59 14 77 14 34 78 97
99 97 7 0 34 -35 62 -78 64 -98 188 -223 292 -296 l82 -57 -15 -40 c-56 -160
-232 -258 -412 -230 -193 30 -313 118 -361 264 -50 150 -47 308 14 727 39 262
42 280 53 279 4 0 34 -10 66 -22z m8981 -9 c12 -54 55 -345 70 -473 23 -190
17 -403 -14 -498 -32 -97 -88 -162 -181 -210 -195 -98 -386 -82 -513 45 -46
46 -87 116 -87 148 0 8 33 35 72 60 90 56 248 211 313 308 27 39 54 72 60 72
18 0 63 -52 79 -92 26 -60 21 -105 -14 -138 -25 -23 -30 -36 -30 -73 0 -38 -5
-49 -31 -71 -47 -40 -98 -36 -138 9 -33 37 -39 34 -19 -10 33 -72 179 -73 257
-2 62 57 80 181 39 265 -21 45 -88 121 -121 139 -29 15 -11 43 28 43 28 0 35
5 45 33 6 17 15 79 20 137 7 93 42 285 53 296 4 4 85 31 99 33 4 1 10 -9 13
-21z m-8821 -389 c7 -21 5 -21 -13 6 -12 17 -21 41 -21 55 1 24 1 24 14 -6 7
-17 17 -41 20 -55z m748 -681 c65 -19 77 -27 81 -48 3 -15 -2 -34 -14 -49 -26
-33 -24 -57 8 -89 22 -21 31 -45 44 -111 16 -81 16 -86 -2 -105 -35 -37 -19
-91 32 -109 24 -8 76 -202 59 -221 -20 -25 -8 -69 27 -91 21 -14 39 -40 57
-84 15 -35 25 -65 22 -68 -13 -13 -83 22 -101 51 -23 36 -56 44 -89 23 -20
-14 -30 -12 -105 17 -78 29 -84 33 -96 70 -8 21 -20 43 -27 47 -21 14 -60 10
-79 -7 -17 -15 -25 -12 -126 48 -67 40 -109 72 -111 84 -7 33 -43 64 -76 64
-25 0 -49 17 -118 81 -76 69 -88 85 -88 113 0 39 -31 76 -64 76 -14 0 -30 10
-38 23 -8 12 -31 48 -51 79 l-37 56 61 -24 c80 -33 187 -46 274 -33 165 23
271 114 328 281 5 15 14 14 79 -16 40 -19 108 -45 150 -58z m7408 -92 c32 -34
73 -64 113 -82 58 -27 70 -29 192 -29 118 0 136 2 192 26 72 31 72 30 0 -73
-29 -42 -46 -58 -63 -58 -30 0 -67 -47 -61 -78 3 -18 -13 -39 -86 -107 -74
-70 -95 -85 -122 -85 -34 0 -58 -19 -74 -61 -6 -18 -41 -45 -112 -87 -94 -56
-104 -60 -123 -46 -32 22 -72 17 -95 -12 -12 -15 -21 -35 -21 -45 0 -19 -23
-31 -121 -66 -40 -14 -51 -15 -72 -4 -36 19 -69 10 -92 -26 -14 -21 -32 -35
-60 -42 -21 -5 -41 -9 -42 -7 -2 2 10 33 26 69 21 46 38 70 59 81 38 20 45 39
31 86 -9 29 -8 48 4 91 9 30 20 73 26 95 8 31 17 43 35 48 14 3 29 18 36 36
12 28 11 34 -9 61 -21 29 -22 33 -9 107 9 55 19 84 35 100 42 42 46 60 24 98
-36 60 -31 67 72 98 50 15 119 40 152 55 l59 27 28 -58 c15 -32 50 -83 78
-112z m-6455 55 c3 -5 -9 -20 -27 -32 -18 -12 -57 -44 -85 -71 -85 -79 -164
-99 -231 -58 -37 23 -72 75 -72 107 0 20 6 22 88 27 108 8 255 26 261 32 8 8
60 4 66 -5z m5335 -6 c58 -8 140 -17 184 -21 l78 -6 -6 -30 c-14 -69 -74 -118
-146 -118 -52 0 -87 18 -159 83 -32 29 -66 57 -77 63 -16 10 -17 13 -5 28 16
19 4 19 131 1z m-5965 -15 c61 -6 124 -10 142 -10 29 0 32 -3 38 -42 14 -81
45 -119 124 -149 41 -15 78 -21 137 -21 l81 0 6 -76 c5 -65 3 -79 -14 -100
-26 -34 -24 -59 9 -90 24 -23 31 -41 42 -110 11 -74 11 -85 -4 -101 -27 -29
-20 -67 17 -95 29 -22 36 -37 50 -102 22 -102 18 -106 -82 -99 -173 13 -175
13 -193 45 -14 24 -24 30 -51 30 -22 0 -41 -8 -53 -21 -20 -23 -41 -22 -150 1
-50 11 -53 13 -77 68 -35 78 -42 109 -27 126 6 8 10 30 8 48 -2 26 -10 36 -38
50 -32 16 -37 25 -61 110 -23 80 -25 95 -13 109 24 27 17 72 -14 100 -24 20
-31 37 -40 102 -11 74 -11 79 10 107 18 24 20 35 12 58 -5 15 -19 31 -32 37
-12 5 -22 18 -22 29 0 16 5 18 43 12 23 -4 92 -11 152 -16z m6635 7 c0 -7 -13
-23 -30 -35 -36 -27 -40 -65 -10 -97 19 -21 20 -25 6 -105 -13 -73 -19 -87
-46 -108 -33 -26 -38 -56 -14 -90 14 -20 13 -29 -11 -115 -24 -83 -30 -94 -56
-104 -16 -6 -34 -23 -41 -38 -10 -23 -9 -32 6 -58 17 -31 17 -32 -16 -108 -37
-86 -40 -88 -166 -105 -46 -6 -55 -4 -73 15 -12 12 -32 21 -49 21 -27 0 -42
-10 -77 -53 -8 -10 -46 -16 -128 -21 -151 -10 -151 -9 -123 99 11 44 26 83 34
88 45 26 58 75 28 108 -14 16 -15 27 -4 103 11 74 16 87 41 106 34 24 38 64
10 94 -16 18 -18 31 -12 96 l6 75 56 -3 c69 -4 171 20 220 52 41 28 69 79 69
129 l0 34 133 8 c72 4 152 11 177 15 67 11 70 11 70 -3z m-5725 -197 c228
-145 629 -338 880 -425 77 -27 141 -49 143 -50 1 -1 -5 -16 -14 -34 -17 -34
-68 -64 -212 -121 l-83 -33 -34 19 c-46 25 -86 11 -99 -33 -11 -36 -27 -41
-235 -79 -87 -16 -95 -16 -121 0 -39 22 -60 20 -91 -10 -24 -23 -37 -26 -156
-35 -127 -9 -131 -9 -165 13 -29 19 -38 34 -51 85 -21 76 -21 97 -2 113 27 22
18 66 -18 95 -31 23 -35 32 -45 103 -10 71 -9 79 9 98 28 30 24 68 -9 96 -26
22 -29 32 -35 103 l-5 80 39 27 c25 18 49 48 66 82 l26 55 56 -43 c31 -24 101
-71 156 -106z m4854 95 c7 -19 33 -52 58 -73 l45 -37 -4 -77 c-4 -71 -7 -78
-36 -103 -37 -31 -41 -66 -12 -95 23 -23 24 -40 9 -124 -9 -52 -15 -64 -39
-78 -40 -23 -48 -62 -22 -98 21 -27 21 -28 2 -100 -10 -39 -20 -73 -22 -73 -2
-1 -17 -12 -35 -24 -31 -22 -35 -22 -164 -13 -122 10 -133 12 -151 35 -23 29
-63 33 -90 8 -17 -15 -25 -15 -116 1 -163 29 -232 47 -232 60 0 8 -9 25 -21
40 -23 29 -69 35 -89 11 -17 -20 -26 -19 -101 11 -155 62 -215 95 -226 124
l-11 29 112 37 c352 116 866 377 1095 555 32 25 35 24 50 -16z m-3619 -628
c57 -15 86 -28 88 -38 1 -9 -26 -56 -61 -105 -52 -71 -70 -90 -96 -95 -48 -10
-71 -36 -71 -80 0 -33 -7 -43 -69 -98 -56 -50 -75 -61 -104 -61 -38 0 -52 -12
-62 -53 -5 -18 -28 -42 -69 -71 -93 -66 -103 -70 -138 -55 -25 10 -33 9 -56
-8 -15 -11 -28 -31 -30 -45 -3 -21 -15 -30 -83 -57 -90 -35 -111 -38 -129 -16
-20 24 -66 19 -89 -11 -11 -14 -21 -30 -23 -35 -2 -6 -47 -13 -100 -16 l-96
-6 -25 39 c-49 79 -69 126 -58 137 6 6 11 26 11 43 0 34 -28 64 -61 64 -17 0
-42 49 -74 149 -20 63 -10 101 27 101 13 0 74 5 137 10 108 9 115 8 128 -10
20 -28 76 -27 103 2 11 12 20 25 20 29 0 3 33 12 73 18 39 6 114 22 165 35 84
22 95 23 122 9 34 -17 60 -7 86 32 9 13 32 29 52 36 20 6 88 34 150 62 84 37
116 47 125 38 33 -33 107 5 107 54 0 30 -6 30 100 2z m2282 -56 c22 -13 33
-13 61 -3 31 11 40 9 128 -32 52 -24 118 -51 147 -61 37 -12 57 -25 64 -41 14
-30 52 -41 89 -27 23 9 48 6 121 -13 51 -13 125 -28 163 -35 62 -10 73 -15 87
-40 14 -24 23 -29 57 -29 28 0 44 6 53 19 13 18 20 18 153 8 137 -12 140 -12
149 -38 14 -40 -57 -219 -86 -219 -12 0 -30 -7 -40 -17 -20 -18 -24 -73 -6
-91 8 -8 0 -30 -34 -89 -43 -74 -47 -78 -84 -81 -22 -2 -67 -1 -101 3 -55 6
-64 10 -75 33 -19 39 -61 51 -103 28 l-35 -19 -85 33 c-65 25 -85 37 -85 52 0
10 -11 30 -26 44 -24 25 -39 27 -86 9 -8 -3 -53 20 -101 51 -68 44 -87 61 -87
79 0 33 -26 55 -63 55 -25 0 -47 14 -104 66 -65 58 -72 68 -67 94 8 35 -32 80
-70 80 -20 0 -38 16 -81 74 -30 41 -60 87 -67 102 -15 32 -20 29 97 59 l80 20
5 -30 c3 -18 15 -35 32 -44z m-1952 -11 c151 -28 397 -58 543 -66 116 -6 128
-9 149 -31 27 -29 28 -79 3 -162 -14 -47 -23 -59 -46 -68 -39 -15 -55 -57 -33
-90 15 -24 14 -29 -25 -109 -33 -70 -44 -84 -63 -84 -13 0 -34 -7 -47 -16 -21
-15 -23 -22 -17 -66 6 -47 5 -51 -40 -111 -74 -98 -105 -127 -134 -127 -33 0
-60 -28 -69 -72 -5 -26 -24 -46 -95 -100 -85 -64 -91 -67 -131 -61 -35 4 -46
2 -64 -16 -11 -11 -21 -29 -21 -40 0 -14 -20 -26 -80 -50 -44 -17 -102 -36
-130 -43 -43 -10 -52 -9 -68 5 -28 25 -61 21 -90 -13 -25 -28 -31 -30 -102
-30 -111 0 -180 10 -180 26 0 24 -39 54 -68 54 -16 0 -37 -9 -46 -19 -18 -20
-19 -20 -67 -1 -27 11 -76 33 -109 50 -53 27 -60 34 -60 60 0 55 -54 86 -99
58 -17 -10 -28 -4 -86 47 -62 54 -66 60 -61 90 9 45 -24 85 -69 85 -26 0 -39
7 -59 32 -14 18 -24 33 -23 35 2 1 42 7 90 13 76 9 90 8 112 -6 32 -21 70 -12
88 22 20 37 199 105 239 90 38 -14 77 6 84 43 5 22 24 40 93 84 78 50 90 55
127 50 36 -5 43 -2 63 23 15 19 20 36 16 51 -4 19 7 35 66 90 58 55 76 67 99
65 42 -5 71 29 69 76 -2 31 7 50 59 120 34 46 62 88 62 93 0 5 10 9 23 9 12 0
33 7 47 14 33 19 30 19 150 -4z m1625 10 c3 -5 19 -10 34 -10 25 0 38 -14 98
-98 60 -84 70 -102 65 -130 -6 -44 20 -72 67 -72 30 0 45 -9 103 -67 56 -56
68 -73 68 -100 0 -49 32 -77 81 -69 34 5 47 1 122 -49 58 -38 87 -63 91 -80
10 -38 49 -59 85 -47 26 9 46 5 130 -26 62 -23 101 -43 104 -53 3 -10 17 -25
32 -35 25 -17 29 -17 59 0 25 13 46 15 106 10 100 -9 105 -12 74 -52 -19 -24
-33 -32 -58 -32 -45 0 -70 -29 -68 -79 2 -37 -3 -44 -62 -96 -55 -48 -68 -55
-85 -46 -30 16 -52 13 -78 -11 -15 -14 -23 -33 -23 -53 0 -30 -5 -34 -67 -63
-125 -58 -145 -62 -172 -41 -13 11 -33 19 -44 19 -23 0 -67 -37 -67 -55 0 -15
-69 -25 -175 -25 -77 0 -84 2 -99 25 -22 33 -59 42 -92 20 -33 -21 -67 -15
-191 32 -81 31 -93 39 -93 59 0 33 -41 58 -81 50 -37 -7 -53 1 -151 77 -65 50
-78 64 -78 88 0 37 -32 69 -69 69 -22 0 -38 12 -73 53 -95 111 -108 135 -101
183 7 52 -14 84 -56 84 -23 0 -32 11 -67 83 -40 79 -41 83 -26 114 14 29 14
34 -2 58 -9 14 -27 30 -40 35 -42 16 -74 182 -42 225 11 16 34 20 157 27 190
11 620 68 638 84 9 8 40 4 46 -6z m-3945 -215 c40 -8 83 -24 97 -35 29 -23 61
-26 86 -7 14 9 46 10 145 2 115 -9 129 -12 153 -35 14 -14 32 -29 41 -35 8 -5
32 -53 52 -106 30 -79 35 -101 27 -123 -15 -37 2 -75 38 -87 21 -7 40 -30 69
-80 l40 -69 -26 0 c-48 0 -102 12 -102 23 0 6 -7 19 -17 29 -17 19 -78 25 -88
8 -10 -17 -33 -11 -111 26 -60 30 -74 41 -74 60 0 33 -26 54 -68 54 -32 0 -45
9 -103 66 -63 63 -67 68 -62 104 6 46 -22 80 -66 80 -24 0 -34 8 -57 48 -15
26 -34 57 -42 70 -17 26 -21 26 68 7z m6200 10 c0 -3 -17 -35 -37 -70 -34 -59
-40 -65 -69 -65 -46 0 -78 -42 -69 -89 6 -32 2 -38 -59 -97 -57 -56 -69 -63
-102 -62 -41 1 -74 -27 -74 -64 0 -14 -20 -28 -76 -55 -64 -31 -79 -34 -100
-24 -46 20 -83 14 -102 -18 -16 -29 -48 -41 -110 -41 -23 0 -23 1 15 70 24 46
46 73 60 76 40 11 56 39 49 86 -6 35 0 60 29 139 31 82 41 99 66 109 15 7 31
21 34 31 5 13 16 19 38 19 18 1 77 5 132 9 79 7 104 5 120 -5 28 -20 55 -17
80 6 13 12 51 26 91 34 85 17 84 17 84 11z m-3134 -157 c-14 -20 -14 -20 -25
1 -10 19 -7 61 7 85 3 5 11 -7 19 -28 11 -32 10 -41 -1 -58z"/>
<path d="M6640 10153 c-100 -6 -423 -43 -550 -64 -177 -28 -508 -113 -655
-168 -223 -84 -581 -259 -775 -379 -170 -106 -236 -162 -337 -286 l-31 -38
-124 31 c-167 42 -247 52 -424 52 -179 1 -306 -19 -449 -68 -142 -49 -225
-101 -326 -203 -69 -70 -95 -106 -136 -186 -79 -154 -113 -272 -155 -539 l-13
-80 -135 -30 c-162 -36 -245 -65 -325 -113 -262 -155 -396 -391 -396 -696 0
-174 26 -286 96 -412 52 -92 104 -153 190 -223 124 -99 242 -152 450 -199
l120 -28 27 -159 c83 -489 268 -740 633 -860 142 -46 247 -58 470 -52 176 5
217 9 335 36 74 17 141 31 149 31 8 0 51 -39 96 -87 138 -148 402 -311 787
-486 433 -198 876 -303 1463 -348 268 -20 615 12 1047 96 346 68 725 214 1113
430 211 117 332 203 432 309 l88 92 120 -27 c161 -37 263 -49 430 -49 236 1
376 30 554 116 98 48 124 66 195 137 98 98 140 160 194 287 49 115 76 218 103
393 11 72 23 135 27 139 4 3 52 16 107 27 264 56 408 130 551 284 83 89 145
206 175 334 29 120 29 305 0 418 -48 187 -158 345 -313 452 -132 91 -207 121
-415 163 l-111 23 -11 81 c-32 227 -60 336 -121 476 -149 345 -467 523 -935
523 -170 0 -264 -12 -429 -52 l-116 -28 -113 111 c-129 129 -248 209 -517 349
-351 183 -607 280 -952 362 -329 77 -806 125 -1088 108z m-618 -200 c59 -56
79 -220 35 -297 -43 -78 -151 -106 -203 -55 -78 79 -5 239 110 239 38 0 38 0
32 33 -16 81 -78 110 -135 62 -32 -28 -44 -20 -13 8 30 28 85 47 117 41 17 -4
42 -18 57 -31z m632 -43 c-4 -16 -3 -30 1 -30 4 0 23 14 42 30 46 41 90 41
106 1 l11 -30 33 30 c35 30 80 38 101 17 18 -18 15 -66 -9 -137 -26 -76 -15
-98 25 -50 15 17 29 29 32 26 3 -3 -11 -24 -31 -46 -27 -30 -45 -41 -66 -41
-47 0 -53 26 -27 124 24 89 20 114 -16 100 -23 -9 -65 -83 -86 -152 -16 -51
-21 -57 -50 -63 -37 -8 -37 -15 0 120 22 82 15 110 -21 90 -27 -14 -77 -105
-90 -166 -12 -52 -13 -53 -49 -53 l-37 0 28 96 c35 116 35 130 7 140 -22 8
-22 8 7 15 17 4 45 7 62 8 31 1 32 0 27 -29z m632 -15 c29 -19 32 -65 7 -87
-22 -19 -86 -38 -130 -38 -31 0 -33 -2 -33 -35 0 -26 6 -39 25 -51 23 -15 27
-15 67 5 51 25 63 20 17 -8 -22 -14 -51 -21 -82 -21 -40 0 -54 5 -78 29 -48
49 -37 122 29 184 50 48 125 57 178 22z m-872 -57 c-24 -135 -14 -185 24 -118
15 27 32 39 32 24 0 -10 -42 -68 -58 -81 -25 -21 -73 -16 -79 7 -7 27 -16 25
-51 -10 -23 -22 -40 -30 -66 -30 -49 0 -62 28 -47 99 6 29 11 70 11 91 0 34
-3 40 -22 40 -38 0 -8 15 53 26 32 6 59 10 59 8 0 -1 -7 -38 -15 -81 -8 -43
-15 -94 -15 -115 0 -32 2 -35 21 -31 37 10 65 75 94 216 5 23 10 27 39 27 l33
0 -13 -72z m1073 33 c6 -1 9 -10 6 -22 -5 -19 -4 -20 15 -10 37 20 91 13 119
-15 22 -22 25 -32 20 -71 -9 -78 -65 -133 -145 -141 -41 -4 -53 -1 -71 17 -11
11 -23 21 -26 21 -8 0 -45 -78 -45 -94 0 -8 8 -20 18 -25 16 -10 15 -10 -3
-10 -41 1 -146 25 -139 32 4 4 16 7 26 7 14 0 35 36 88 147 39 80 70 147 70
148 0 2 -11 6 -25 9 -44 11 -18 23 32 15 26 -4 53 -8 60 -8z m440 -107 c27
-17 40 -61 26 -83 -6 -9 -23 -16 -39 -16 -37 0 -46 37 -15 57 27 17 27 34 -1
41 -44 12 -95 -30 -128 -106 -20 -45 -20 -50 -6 -73 18 -26 70 -33 107 -14 10
6 19 7 19 2 0 -15 -49 -32 -93 -32 -77 0 -126 59 -108 128 12 43 61 94 106
110 36 14 102 7 132 -14z m-2207 -86 c0 -145 15 -173 50 -95 10 23 19 34 19
24 2 -49 -53 -110 -96 -105 -25 3 -28 7 -33 50 -3 26 -9 50 -13 54 -4 4 -25 2
-47 -5 l-40 -12 0 -63 c0 -62 -1 -64 -30 -74 l-29 -11 -3 112 c-3 108 -4 112
-25 115 -35 5 -27 18 18 31 23 7 47 15 55 18 11 4 14 -7 14 -52 0 -56 1 -57
25 -51 70 18 72 20 67 80 -4 51 -3 56 19 65 47 19 49 16 49 -81z m2403 13 l37
-16 -36 -45 c-34 -43 -35 -45 -15 -54 15 -7 31 -1 68 22 66 42 95 48 117 23
23 -26 17 -55 -13 -59 -22 -3 -23 -1 -18 27 8 40 -6 40 -67 4 -51 -32 -55 -41
-25 -67 15 -12 19 -24 15 -39 -19 -66 -19 -77 1 -77 10 0 24 5 31 12 6 6 15 8
19 4 12 -12 -19 -26 -58 -26 -22 0 -44 8 -58 21 -23 22 -23 28 0 86 10 26 10
34 0 47 -27 32 -58 13 -112 -67 -4 -5 -21 -4 -42 4 l-36 13 63 75 c82 99 81
99 59 123 -18 20 -18 21 7 13 14 -4 42 -15 63 -24z m-2747 -105 c61 -69 25
-206 -62 -242 -74 -31 -134 -5 -155 67 -40 130 134 271 217 175z m3143 -71
c16 -8 31 -24 34 -36 4 -15 11 -20 22 -15 9 3 30 -1 47 -10 l31 -16 -77 -70
c-42 -38 -76 -76 -76 -83 0 -23 18 -27 51 -10 39 21 50 13 15 -10 -32 -21 -98
-24 -120 -6 -9 7 -16 23 -16 35 0 18 -6 21 -46 21 -38 0 -50 5 -70 28 -63 73
16 187 129 187 26 0 61 -7 76 -15z m-3455 -42 c4 -9 0 -23 -9 -32 -15 -15 -18
-14 -31 3 -20 28 -31 11 -36 -57 l-5 -59 33 6 c28 6 36 2 63 -30 25 -31 32
-35 45 -25 8 7 17 25 19 39 4 26 4 26 6 -4 1 -22 -7 -38 -28 -58 -38 -37 -69
-32 -100 17 -27 41 -39 45 -69 20 -20 -18 -21 -19 -3 -75 l19 -57 -25 -17
c-14 -9 -28 -12 -33 -7 -4 4 -15 37 -25 73 -9 36 -23 80 -31 99 -12 29 -17 32
-41 27 l-28 -6 27 23 c15 12 41 30 57 40 l30 18 11 -43 c19 -74 18 -73 39 -54
13 12 20 35 23 80 2 35 10 71 17 80 18 21 67 21 75 -1z m3772 -161 c12 -9 29
-29 38 -43 10 -17 24 -25 34 -23 9 2 27 -4 40 -14 l23 -18 -81 -64 c-91 -74
-101 -95 -40 -87 22 3 38 1 35 -3 -3 -5 -26 -12 -50 -16 -34 -5 -51 -2 -70 10
-33 22 -32 46 5 81 35 34 38 51 10 60 -11 3 -20 12 -20 18 0 7 -9 18 -20 25
-24 15 -26 49 -3 74 20 23 71 23 99 0z m-216 -102 c0 -24 15 -25 65 -4 20 8
39 13 41 11 6 -6 -91 -47 -110 -47 -30 0 -46 13 -46 36 0 19 5 24 25 24 18 0
25 -5 25 -20z m-3720 -539 c52 -37 64 -110 34 -212 -18 -63 -134 -298 -239
-484 -208 -369 -302 -541 -298 -547 2 -4 34 13 71 39 195 134 358 159 427 65
32 -43 28 -159 -8 -236 -80 -173 -228 -306 -419 -378 -73 -28 -95 -32 -190
-32 -104 -1 -108 0 -135 27 -24 23 -28 36 -28 80 0 76 54 182 393 772 275 478
364 687 342 806 -14 74 -74 99 -155 65 -53 -22 -42 -10 18 20 93 48 136 51
187 15z m-812 -406 c52 -16 105 -52 123 -86 8 -16 3 -29 -30 -70 l-40 -50 -14
33 c-17 41 -67 84 -126 111 -39 17 -59 19 -150 14 -182 -9 -303 -63 -445 -197
-164 -155 -254 -302 -302 -487 -33 -129 -31 -304 5 -396 105 -267 440 -318
678 -103 65 60 123 138 123 167 0 17 3 16 35 -4 19 -12 34 -27 35 -34 0 -16
-72 -105 -117 -142 -48 -41 -180 -105 -258 -126 -33 -9 -110 -19 -170 -22
-265 -14 -426 83 -481 291 -31 115 -11 298 46 432 61 141 224 333 390 458 228
172 526 262 698 211z m3616 -667 c-4 -7 -22 -33 -39 -58 -42 -58 -134 -243
-170 -340 -38 -102 -41 -209 -7 -242 19 -19 32 -23 85 -22 35 1 80 9 101 18
22 9 41 14 44 12 2 -3 -13 -12 -33 -21 -160 -66 -259 -69 -316 -9 -20 22 -24
36 -24 89 0 58 6 75 60 182 74 144 71 138 51 130 -10 -4 -1 15 22 46 22 28 54
78 72 111 29 51 40 62 94 86 73 34 69 33 60 18z m1509 -20 c26 -31 18 -60 -53
-206 -50 -102 -57 -124 -44 -129 33 -12 219 6 287 28 67 22 69 24 115 97 26
41 66 100 88 132 38 51 47 58 101 73 33 9 63 17 68 17 5 0 -9 -19 -32 -42 -61
-64 -145 -184 -207 -294 -96 -170 -117 -264 -74 -319 19 -25 26 -27 77 -23 61
4 156 47 226 101 22 18 34 24 26 14 -7 -9 -45 -38 -84 -64 -185 -123 -343
-131 -372 -18 -11 46 17 135 76 239 22 38 38 70 36 72 -1 2 -45 -6 -97 -16
-52 -11 -134 -23 -182 -26 l-88 -7 -89 -156 c-81 -142 -92 -157 -122 -164 -19
-5 -49 -12 -67 -17 -33 -8 -33 -8 -18 13 50 73 158 258 166 287 6 19 7 49 4
67 -6 32 -5 33 23 27 29 -6 31 -3 81 94 57 113 70 161 53 199 -10 22 -16 24
-43 19 -40 -8 -31 2 19 20 49 18 103 11 126 -18z m-3103 -3 c19 -20 22 -31 16
-66 -4 -22 -13 -54 -21 -70 -18 -34 -19 -53 -3 -43 7 4 -9 -20 -35 -53 -45
-58 -189 -310 -229 -400 -16 -36 -24 -43 -47 -43 -16 0 -46 -6 -68 -14 l-40
-14 47 71 c26 40 69 113 95 162 l48 90 -63 -60 c-58 -54 -56 -51 16 26 117
125 204 306 184 379 -6 22 -12 25 -51 24 l-44 -1 40 18 c60 27 126 25 155 -6z
m-472 -1 c13 -9 22 -26 22 -40 0 -92 -156 -205 -354 -257 l-86 -22 -19 -60
c-28 -87 -34 -137 -21 -185 23 -85 96 -122 203 -103 76 13 184 55 257 100 43
26 48 28 25 8 -42 -36 -179 -102 -250 -120 -32 -8 -95 -15 -138 -15 -125 0
-194 47 -211 142 -9 50 17 170 50 227 57 98 203 240 297 288 27 13 25 9 -15
-26 -47 -42 -158 -195 -158 -218 0 -17 6 -17 86 11 89 30 125 49 169 88 43 37
65 77 65 116 0 35 -14 49 -55 54 l-30 4 35 11 c51 16 102 15 128 -3z m1183
-10 c23 -21 24 -65 3 -106 -9 -18 -63 -102 -120 -188 -114 -173 -171 -298
-200 -439 -46 -232 41 -418 210 -444 54 -9 131 8 201 43 33 16 51 23 40 14
-38 -31 -143 -73 -205 -83 -110 -18 -191 8 -266 86 -80 82 -102 211 -65 388
26 126 63 214 175 409 53 93 99 185 102 204 18 94 -74 94 -201 0 l-40 -30 40
36 c127 115 268 162 326 110z m1704 7 c45 -20 92 -69 101 -106 3 -13 14 -25
25 -28 25 -7 25 -48 -1 -103 -12 -23 -59 -82 -105 -131 -86 -89 -105 -123
-105 -191 0 -108 149 -108 306 -2 47 33 52 34 24 10 -19 -17 -81 -54 -137 -82
-90 -45 -110 -51 -167 -52 -55 -1 -69 3 -88 21 -26 26 -51 102 -39 118 5 5 16
35 26 65 10 30 28 75 41 100 36 74 139 205 178 229 20 13 36 27 36 33 0 6 -19
30 -43 53 -103 103 -258 78 -386 -62 -74 -80 -103 -128 -136 -227 -29 -85 -35
-187 -16 -235 16 -37 58 -55 114 -48 l42 6 -35 -16 c-68 -30 -131 -37 -172
-20 -44 19 -66 57 -76 135 -23 179 188 457 403 531 75 26 157 26 210 2z m1963
4 c47 -20 79 -50 103 -97 11 -21 26 -38 34 -38 21 0 19 -55 -5 -107 -10 -23
-57 -82 -104 -131 -74 -77 -87 -95 -96 -139 -14 -65 5 -119 45 -129 43 -11
119 3 177 31 43 21 48 22 28 6 -14 -11 -59 -35 -100 -53 -98 -42 -185 -45
-223 -9 -15 13 -28 40 -32 62 -6 36 -8 38 -28 28 -15 -7 -14 -4 6 11 15 12 27
27 27 34 0 7 13 45 29 85 38 91 119 208 188 271 l55 50 -21 33 c-32 52 -94 82
-171 82 -91 -1 -147 -29 -231 -115 -115 -119 -176 -268 -167 -408 4 -56 8 -68
33 -90 25 -21 36 -24 79 -19 l51 5 -42 -18 c-107 -47 -190 -31 -224 44 -10 23
-19 60 -19 84 0 26 -4 41 -10 37 -5 -3 -3 7 5 22 7 15 21 49 30 75 39 114 179
279 290 344 107 62 217 80 293 49z m-4080 -18 c16 -13 15 -82 -3 -132 -17 -47
-13 -54 17 -30 13 10 -16 -20 -63 -68 -95 -96 -130 -113 -99 -49 10 20 28 69
41 109 19 61 21 76 11 99 -11 22 -17 26 -47 22 -19 -2 -35 -3 -35 -2 0 8 68
49 98 60 36 12 56 10 80 -9z m962 -320 c0 -2 -10 -12 -22 -23 l-23 -19 19 23
c18 21 26 27 26 19z m3600 -1 c0 -2 -8 -10 -17 -17 -16 -13 -17 -12 -4 4 13
16 21 21 21 13z m-3707 -122 c-120 -136 -243 -214 -337 -214 -58 0 -86 20 -86
62 0 42 11 58 77 114 46 39 52 42 31 16 -52 -63 -28 -152 40 -152 52 0 133 51
231 146 53 51 97 93 99 94 2 0 -23 -30 -55 -66z m3657 63 c0 -1 -24 -25 -52
-52 l-53 -50 50 53 c46 48 55 57 55 49z m-1980 -10 c0 -2 -19 -21 -42 -42
l-43 -40 40 43 c36 39 45 47 45 39z m-1050 -80 c0 -2 -10 -12 -22 -23 l-23
-19 19 23 c18 21 26 27 26 19z m960 0 c0 -2 -10 -12 -22 -23 l-23 -19 19 23
c18 21 26 27 26 19z m-3110 -10 c0 -2 -10 -12 -22 -23 l-23 -19 19 23 c18 21
26 27 26 19z m4110 0 c0 -2 -10 -12 -22 -23 l-23 -19 19 23 c18 21 26 27 26
19z m960 0 c0 -2 -10 -12 -22 -23 l-23 -19 19 23 c18 21 26 27 26 19z m-2970
-31 c0 -2 -8 -10 -17 -17 -16 -13 -17 -12 -4 4 13 16 21 21 21 13z m2920 -10
c0 -3 -15 -14 -32 -26 l-33 -22 30 26 c31 27 35 29 35 22z m-2990 -41 c0 -2
-10 -9 -22 -15 -22 -11 -22 -10 -4 4 21 17 26 19 26 11z"/>
<path d="M5934 9822 c-23 -15 -36 -56 -37 -123 -2 -59 1 -72 20 -91 35 -34 67
-14 83 52 13 55 8 134 -11 156 -12 15 -38 18 -55 6z"/>
<path d="M7177 9868 c-14 -18 -28 -44 -32 -57 -7 -23 -6 -24 31 -18 72 12 115
98 52 105 -20 2 -32 -5 -51 -30z"/>
<path d="M7497 9810 c-31 -24 -67 -96 -67 -133 0 -33 31 -52 60 -37 30 16 79
87 86 126 11 60 -30 83 -79 44z"/>
<path d="M5235 9570 c-34 -37 -4 -197 40 -214 20 -7 51 8 59 30 10 25 7 98 -5
135 -23 68 -60 87 -94 49z"/>
<path d="M8432 9470 c-91 -65 -95 -158 -7 -136 34 9 115 93 115 120 0 53 -48
60 -108 16z"/>
<path d="M8792 9274 c-27 -18 -28 -45 -4 -67 25 -23 45 -21 70 6 l22 24 -21
26 c-24 31 -36 33 -67 11z"/>
<path d="M4636 7538 c-59 -13 -149 -65 -216 -126 -47 -42 -71 -75 -104 -141
-104 -208 -120 -289 -67 -342 24 -23 38 -29 73 -29 51 0 135 23 193 53 55 28
170 140 217 211 69 106 101 269 62 324 -30 43 -95 63 -158 50z"/>
<path d="M8585 7358 c-32 -38 -108 -185 -103 -200 4 -11 95 90 136 149 25 36
29 83 8 83 -8 0 -26 -14 -41 -32z"/>
<path d="M10549 7348 c-39 -54 -101 -176 -97 -190 5 -15 123 116 147 164 37
75 0 94 -50 26z"/>
<path d="M790 7970 c-24 -45 35 -85 71 -49 23 23 24 33 3 53 -22 22 -61 20
-74 -4z"/>
<path d="M12702 7978 c-30 -30 -2 -72 45 -66 50 6 40 78 -11 78 -12 0 -27 -5
-34 -12z"/>
<path d="M12872 7561 c-8 -5 -12 -21 -10 -37 2 -24 8 -30 33 -32 19 -3 33 2
42 14 17 23 16 29 -3 48 -17 18 -42 20 -62 7z"/>
<path d="M717 7154 c-14 -14 -7 -43 12 -54 30 -15 53 -2 49 29 -2 19 -9 27
-28 29 -14 2 -29 0 -33 -4z"/>
<path d="M12791 7146 c-24 -29 14 -65 50 -46 20 11 23 19 13 44 -8 20 -47 21
-63 2z"/>
<path d="M670 6646 c0 -25 -5 -57 -10 -71 -9 -25 -6 -31 32 -66 24 -21 45 -38
48 -39 3 0 10 21 17 48 10 44 9 49 -16 78 -15 16 -33 44 -40 62 -19 45 -31 40
-31 -12z"/>
<path d="M12875 6670 c-4 -11 -22 -41 -41 -65 -34 -45 -34 -46 -22 -95 l13
-49 43 40 43 41 -11 54 c-6 30 -9 63 -5 74 3 11 2 20 -4 20 -5 0 -13 -9 -16
-20z"/>
<path d="M864 6628 c-36 -32 -94 -136 -94 -170 0 -28 -15 -28 -53 -2 -36 24
-148 59 -169 52 -6 -2 23 -20 63 -40 41 -20 93 -53 116 -73 45 -38 63 -39 63
-2 0 27 57 157 94 215 15 24 25 46 23 49 -3 2 -22 -11 -43 -29z"/>
<path d="M12660 6646 c0 -3 14 -25 31 -50 35 -53 74 -144 84 -199 4 -20 12
-37 17 -37 5 0 30 17 54 38 24 22 73 54 109 71 37 18 64 35 62 37 -10 11 -117
-20 -160 -47 -43 -26 -48 -27 -54 -11 -18 55 -68 151 -90 175 -23 23 -53 36
-53 23z"/>
<path d="M1043 6621 c-60 -28 -120 -93 -156 -169 -25 -54 -32 -83 -35 -153
l-4 -87 -63 64 c-98 100 -212 142 -312 115 -83 -23 -133 -88 -133 -175 0 -36
6 -52 31 -81 17 -19 38 -35 47 -35 14 0 14 2 0 18 -46 52 -59 113 -33 162 22
43 53 60 107 60 41 0 54 -5 87 -35 l39 -36 36 18 c60 28 90 6 184 -135 44 -65
105 -141 137 -170 140 -128 428 -212 578 -168 70 20 92 50 57 78 -28 23 -50
23 -130 -3 -127 -41 -278 -21 -389 50 -64 42 -147 130 -171 183 -43 95 -16
206 63 257 36 23 37 26 37 82 0 70 27 109 95 135 79 30 198 -4 230 -66 20 -38
19 -123 -1 -161 -36 -70 -151 -76 -211 -11 -38 42 -54 37 -27 -9 30 -51 65
-71 122 -71 64 0 128 34 154 82 34 65 15 185 -38 232 -58 51 -218 66 -301 29z"/>
<path d="M12275 6621 c-75 -35 -105 -85 -105 -178 0 -69 23 -110 80 -142 34
-19 52 -23 101 -19 65 5 100 28 118 79 13 37 2 37 -34 -1 -59 -62 -167 -60
-205 3 -25 40 -27 125 -4 168 19 38 102 79 159 79 49 0 122 -35 148 -72 15
-20 20 -42 19 -87 -1 -44 3 -61 12 -61 24 0 68 -43 87 -84 41 -91 14 -192 -74
-284 -135 -139 -310 -185 -494 -131 -89 27 -126 20 -131 -23 -5 -45 42 -63
163 -62 118 0 217 24 341 84 110 53 180 119 270 257 96 145 142 177 195 134
l24 -19 42 39 c37 34 49 39 88 39 57 0 80 -12 100 -50 24 -46 19 -108 -11
-152 -32 -45 -28 -57 10 -27 59 46 71 115 34 189 -18 35 -35 51 -78 73 -47 25
-63 28 -116 24 -84 -6 -169 -53 -242 -132 l-57 -62 -1 86 c-1 122 -28 188
-108 266 -40 40 -75 65 -102 73 -63 18 -182 15 -229 -7z"/>
<path d="M1171 6195 c-58 -50 -65 -138 -13 -190 65 -67 123 -76 378 -65 121 6
139 -2 131 -62 -13 -98 -53 -116 -262 -123 -177 -5 -215 -10 -267 -36 -57 -29
-78 -63 -78 -126 0 -47 4 -59 28 -83 38 -37 93 -48 138 -26 40 18 46 39 9 30
-53 -13 -105 18 -105 62 0 13 7 42 17 65 25 63 68 79 215 79 257 0 403 60 403
165 0 52 -21 78 -81 101 -40 15 -51 15 -165 -1 -203 -29 -305 -7 -339 74 -16
41 -7 73 36 121 l36 40 -25 0 c-14 0 -39 -11 -56 -25z"/>
<path d="M12320 6216 c0 -2 15 -19 34 -38 62 -62 56 -128 -16 -175 -52 -35
-144 -41 -292 -18 -91 13 -122 15 -150 5 -82 -27 -113 -86 -81 -153 35 -74
178 -117 387 -117 97 0 130 -4 157 -18 48 -24 72 -60 74 -111 2 -57 -29 -85
-85 -78 -45 6 -49 -7 -8 -28 37 -19 64 -19 106 1 92 44 83 183 -14 233 -55 28
-145 41 -292 41 -69 1 -141 6 -160 13 -45 16 -80 68 -80 119 0 57 22 63 195
48 180 -15 254 0 312 62 52 56 48 145 -9 193 -25 21 -78 35 -78 21z"/>
<path d="M1802 5994 c-26 -18 -29 -56 -6 -78 20 -20 43 -20 72 0 27 19 28 48
2 74 -24 24 -38 25 -68 4z"/>
<path d="M11702 5994 c-12 -8 -22 -25 -22 -38 0 -25 28 -56 51 -56 26 0 59 31
59 55 0 23 -32 55 -55 55 -6 0 -21 -7 -33 -16z"/>
<path d="M6752 3737 c-45 -48 -18 -117 46 -117 66 0 94 69 47 115 -30 31 -65
32 -93 2z"/>
<path d="M6746 3424 c-19 -18 -21 -65 -4 -82 7 -7 26 -12 43 -12 38 0 55 16
55 51 0 34 -24 59 -55 59 -13 0 -31 -7 -39 -16z"/>
<path d="M6763 3149 c-25 -9 -38 -47 -28 -78 12 -40 88 -39 100 0 16 50 -26
95 -72 78z"/>
<path d="M6752 2854 c-43 -30 -20 -104 32 -104 52 0 76 75 34 104 -12 9 -27
16 -33 16 -6 0 -21 -7 -33 -16z"/>
<path d="M6790 2608 c0 -41 -29 -139 -50 -168 -28 -39 -94 -69 -169 -76 -34
-4 -58 -10 -54 -14 4 -4 41 -13 80 -19 121 -21 164 -66 185 -195 6 -36 14 -66
18 -66 4 0 10 25 14 56 7 61 28 118 54 148 25 28 89 53 155 61 61 8 78 25 24
25 -50 0 -132 27 -165 55 -35 29 -58 83 -68 154 -7 53 -24 80 -24 39z"/>
</g>
</svg>
